<?xml version="1.0" encoding="utf-8"?>
<!-- Generator: Adobe Illustrator 18.0.0, SVG Export Plug-In . SVG Version: 6.00 Build 0)  -->
<!DOCTYPE svg PUBLIC "-//W3C//DTD SVG 1.1//EN" "http://www.w3.org/Graphics/SVG/1.1/DTD/svg11.dtd">
<svg version="1.1" id="Layer_1" xmlns="http://www.w3.org/2000/svg" xmlns:xlink="http://www.w3.org/1999/xlink" x="0px" y="0px"
	 viewBox="0 0 520 520" enable-background="new 0 0 520 520" xml:space="preserve">
<path fill="none" stroke="#D78698" stroke-width="10" stroke-miterlimit="10" d="M248.7,229.3v-44.7V229.3z"/>
<path fill="none" stroke="#D78698" stroke-width="10" stroke-miterlimit="10" d="M248.8,228.1c0,6.2,5.1,11.2,11.2,11.2h0
	c6.2,0,11.2-5.1,11.2-11.2v1.2v-44.7"/>
<linearGradient id="SVGID_1_" gradientUnits="userSpaceOnUse" x1="198.6875" y1="162.6667" x2="321.3542" y2="162.6667">
	<stop  offset="0" style="stop-color:#F59395"/>
	<stop  offset="0.2585" style="stop-color:#F29295"/>
	<stop  offset="0.4044" style="stop-color:#EA8E96"/>
	<stop  offset="0.5222" style="stop-color:#DF8997"/>
	<stop  offset="0.6252" style="stop-color:#CF8399"/>
	<stop  offset="0.7184" style="stop-color:#BB7A9B"/>
	<stop  offset="0.8045" style="stop-color:#A2709D"/>
	<stop  offset="0.8852" style="stop-color:#8666A0"/>
	<stop  offset="0.9597" style="stop-color:#645CA2"/>
	<stop  offset="1" style="stop-color:#4C56A5"/>
</linearGradient>
<path fill="none" stroke="url(#SVGID_1_)" stroke-width="10" stroke-miterlimit="10" d="M316.4,136.7v35c0,6.6-5.4,12-12,12h-88.7
	c-6.6,0-12-5.4-12-12v-35"/>
<linearGradient id="SVGID_2_" gradientUnits="userSpaceOnUse" x1="47.6825" y1="260" x2="472.3175" y2="260">
	<stop  offset="0" style="stop-color:#F59395"/>
	<stop  offset="0.1036" style="stop-color:#E98E96"/>
	<stop  offset="0.2909" style="stop-color:#D08399"/>
	<stop  offset="0.5405" style="stop-color:#A7729D"/>
	<stop  offset="0.8397" style="stop-color:#705FA1"/>
	<stop  offset="1" style="stop-color:#4C56A5"/>
</linearGradient>
<path fill="none" stroke="url(#SVGID_2_)" stroke-width="15" stroke-miterlimit="10" d="M449.8,464.8H70.2c-8.3,0-15-6.8-15-15V70.2
	c0-8.3,6.8-15,15-15h379.6c8.3,0,15,6.8,15,15v379.6C464.8,458.1,458.1,464.8,449.8,464.8z"/>
<linearGradient id="SVGID_3_" gradientUnits="userSpaceOnUse" x1="55.1825" y1="88" x2="464.8175" y2="88">
	<stop  offset="0" style="stop-color:#F59395"/>
	<stop  offset="0.1188" style="stop-color:#E58C96"/>
	<stop  offset="0.3541" style="stop-color:#C27D9A"/>
	<stop  offset="0.6799" style="stop-color:#8B689F"/>
	<stop  offset="1" style="stop-color:#4C56A5"/>
</linearGradient>
<line fill="none" stroke="url(#SVGID_3_)" stroke-width="15" stroke-miterlimit="10" x1="55.2" y1="88" x2="464.8" y2="88"/>
<linearGradient id="SVGID_4_" gradientUnits="userSpaceOnUse" x1="55.1825" y1="131" x2="464.8175" y2="131">
	<stop  offset="0" style="stop-color:#F59395"/>
	<stop  offset="0.1322" style="stop-color:#F19195"/>
	<stop  offset="0.2263" style="stop-color:#E98E96"/>
	<stop  offset="0.3087" style="stop-color:#DC8897"/>
	<stop  offset="0.3843" style="stop-color:#CB8199"/>
	<stop  offset="0.4553" style="stop-color:#B4779B"/>
	<stop  offset="0.5229" style="stop-color:#996D9E"/>
	<stop  offset="0.5865" style="stop-color:#7A62A1"/>
	<stop  offset="0.6452" style="stop-color:#5358A4"/>
	<stop  offset="1" style="stop-color:#4C56A5"/>
</linearGradient>
<line fill="none" stroke="url(#SVGID_4_)" stroke-width="15" stroke-miterlimit="10" x1="464.8" y1="131" x2="55.2" y2="131"/>
<linearGradient id="SVGID_5_" gradientUnits="userSpaceOnUse" x1="260" y1="212" x2="260" y2="212">
	<stop  offset="0" style="stop-color:#F59395"/>
	<stop  offset="5.268514e-003" style="stop-color:#F39295"/>
	<stop  offset="0.2801" style="stop-color:#B8799B"/>
	<stop  offset="0.5266" style="stop-color:#8C689F"/>
	<stop  offset="0.7363" style="stop-color:#6B5EA2"/>
	<stop  offset="0.9009" style="stop-color:#5558A4"/>
	<stop  offset="1" style="stop-color:#4C56A5"/>
</linearGradient>
<path fill="none" stroke="url(#SVGID_5_)" stroke-width="15" stroke-miterlimit="10" d="M260,212L260,212"/>
<line fill="none" stroke="#F59395" stroke-width="15" stroke-miterlimit="10" x1="55.2" y1="359" x2="179.7" y2="359"/>
<linearGradient id="SVGID_6_" gradientUnits="userSpaceOnUse" x1="350" y1="359" x2="464.8175" y2="359">
	<stop  offset="0" style="stop-color:#F59395"/>
	<stop  offset="0.127" style="stop-color:#F09195"/>
	<stop  offset="0.2659" style="stop-color:#E58C96"/>
	<stop  offset="0.4104" style="stop-color:#D38498"/>
	<stop  offset="0.5589" style="stop-color:#BB7A9B"/>
	<stop  offset="0.7104" style="stop-color:#9C6E9E"/>
	<stop  offset="0.8621" style="stop-color:#7861A1"/>
	<stop  offset="1" style="stop-color:#4C56A5"/>
</linearGradient>
<line fill="none" stroke="url(#SVGID_6_)" stroke-width="15" stroke-miterlimit="10" x1="350" y1="359" x2="464.8" y2="359"/>
<linearGradient id="SVGID_7_" gradientUnits="userSpaceOnUse" x1="171.5058" y1="354.2982" x2="348.4941" y2="354.2982">
	<stop  offset="0" style="stop-color:#83D0D6"/>
	<stop  offset="0.1634" style="stop-color:#A1D6BF"/>
	<stop  offset="0.4479" style="stop-color:#CAE095"/>
	<stop  offset="0.6924" style="stop-color:#E5E873"/>
	<stop  offset="0.8843" style="stop-color:#F5ED57"/>
	<stop  offset="1" style="stop-color:#FBEF4A"/>
</linearGradient>
<path fill="url(#SVGID_7_)" stroke="#FFFFFF" stroke-miterlimit="10" d="M261.5,448.6c-1.2,0-2.5,0-3.7,0c-1.1-0.6-2.3-1.4-3.5-1.9
	c-25.5-11-51.1-22-76.7-32.8c-4.3-1.8-6.2-4.4-6.1-9.2c0.1-33.5,0.2-67,0-100.5c0-5.1,1.8-7.8,6.4-9.7c26.9-11.4,53.7-23,80.6-34.6
	c1,0,2,0,2.9,0c27,11.6,53.9,23.2,80.9,34.7c4.3,1.8,6.1,4.4,6.1,9.2c-0.1,33.5-0.2,67,0,100.4c0,5.1-1.8,7.7-6.4,9.7
	C315.1,425.4,288.3,437.1,261.5,448.6z M313.7,320.3c-15.2,6.4-30.4,12.8-45.6,19.4c-1.1,0.5-2.1,2.4-2.2,3.7
	c-0.2,7.8,0,15.7,0,23.5c0,6.4,0,12.8,0,19.1c0,5.7,0,11.3,0,17c0,6.1,0,12.3,0,18.4c0,3.8,0,7.6,0,12.4c6-2.7,11.1-4.9,16.1-7.2
	c17.2-7.3,34.3-14.6,51.5-21.8c2.1-0.9,3-2.1,3-4.4c-0.1-9.7-0.1-19.4-0.2-29.1c0-5.7,0-11.3,0-17c0-6.4,0-12.8,0-19.1
	c0-5.9,0-11.8,0-17.7c0-2.1,0-4.2,0-7.3C328.2,313.9,321,317.1,313.7,320.3z M253.7,433.4c0.2-1.8,0.4-2.9,0.4-3.9
	c0-28.5,0-56.9,0.1-85.4c0-2.6-0.9-4-3.3-5c-21-8.9-42-17.9-62.9-26.9c-1.3-0.5-2.6-0.8-4.2-1.3c-0.2,1.5-0.3,2.5-0.3,3.5
	c0,28.6,0,57.2-0.1,85.8c0,2.7,1.2,3.9,3.4,4.8c20.7,8.8,41.3,17.7,61.9,26.5C250.1,432,251.6,432.6,253.7,433.4z M193.1,301.1
	c0.9,0.6,1.2,1,1.6,1.1c21.1,9,42.1,18.1,63.3,27c1.3,0.5,3.2,0.3,4.5-0.2c20.6-8.7,41.1-17.5,61.6-26.3c0.8-0.4,1.5-0.9,2.6-1.5
	c-0.8-0.5-1.2-0.8-1.6-1c-21-9-41.9-18-62.9-26.9c-1.4-0.6-3.6-0.3-5.2,0.4c-20,8.4-39.9,17-59.9,25.6
	C195.9,299.8,194.7,300.3,193.1,301.1z"/>
</svg>
