<?xml version="1.0" encoding="utf-8"?>
<!-- Generator: Adobe Illustrator 18.0.0, SVG Export Plug-In . SVG Version: 6.00 Build 0)  -->
<!DOCTYPE svg PUBLIC "-//W3C//DTD SVG 1.1//EN" "http://www.w3.org/Graphics/SVG/1.1/DTD/svg11.dtd">
<svg version="1.1" id="Layer_1" xmlns="http://www.w3.org/2000/svg" xmlns:xlink="http://www.w3.org/1999/xlink" x="0px" y="0px"
	 viewBox="0 0 240 240" enable-background="new 0 0 240 240" xml:space="preserve">
<ellipse fill="#2ECC71" cx="120.1" cy="120.2" rx="116.8" ry="116.3"/>
<g>
	<path fill="#2ECC71" d="M120,4v232.5l-0.5-0.2c-64.1,0-116.3-52-116.3-116.1S55.4,3.9,119.6,3.9"/>
	<path fill="#27AE60" d="M120,4v232.5l0.6-0.2c64.1,0,116.3-52,116.3-116.1S184.6,3.9,120.5,3.9"/>
</g>
<path fill="none" stroke="#231F20" stroke-miterlimit="10" d="M102.1,102.8"/>
<path fill="none" stroke="#231F20" stroke-miterlimit="10" d="M97.9,143.5"/>
<rect x="64" y="44.1" fill="#FFFFFF" width="111.9" height="152.5"/>
<rect x="120.1" y="44.1" fill="#FAFAFA" width="56.1" height="152.5"/>
<polygon fill="#D2D7D3" points="176.2,112.7 176.2,78.4 141.9,78.4 "/>
<polygon fill="#ECECEC" points="141.9,44.1 141.9,78.4 176.2,78.4 "/>
<polygon fill="#27AE60" points="177.4,79.5 177.4,42.9 140.8,42.9 "/>
</svg>
