<?xml version="1.0" encoding="utf-8"?>
<!-- Generator: Adobe Illustrator 18.0.0, SVG Export Plug-In . SVG Version: 6.00 Build 0)  -->
<!DOCTYPE svg PUBLIC "-//W3C//DTD SVG 1.1//EN" "http://www.w3.org/Graphics/SVG/1.1/DTD/svg11.dtd">
<svg version="1.1" id="Layer_1" xmlns="http://www.w3.org/2000/svg" xmlns:xlink="http://www.w3.org/1999/xlink" x="0px" y="0px"
	 viewBox="0 0 449.1 324.3" enable-background="new 0 0 449.1 324.3" xml:space="preserve">
<g>
	<path fill="none" stroke="#000000" stroke-width="5" stroke-miterlimit="10" d="M441.1,273.7H8c-4.4,0-8-3.6-8-8V8c0-4.4,3.6-8,8-8
		h433.1c4.4,0,8,3.6,8,8v257.7C449.1,270.1,445.5,273.7,441.1,273.7z"/>
	<path fill="none" stroke="#000000" stroke-width="5" stroke-miterlimit="10" d="M441.1,0.6H8c-4.4,0-8,3.6-8,8v219c0,4.4,3.6,8,8,8
		h433.1c4.4,0,8-3.6,8-8V8.6C449.1,4.2,445.5,0.6,441.1,0.6z"/>
	<path fill="#2A7CCC" d="M191.1,86.9c-0.2-0.2-0.4-0.3-0.5-0.5C190.7,86.6,190.9,86.7,191.1,86.9z"/>
	<linearGradient id="SVGID_1_" gradientUnits="userSpaceOnUse" x1="132.4031" y1="118.1404" x2="316.1096" y2="118.1404">
		<stop  offset="0" style="stop-color:#55FFF3"/>
		<stop  offset="0.2042" style="stop-color:#82FCC4"/>
		<stop  offset="0.4747" style="stop-color:#B7F98B"/>
		<stop  offset="0.7073" style="stop-color:#DEF762"/>
		<stop  offset="0.8899" style="stop-color:#F6F648"/>
		<stop  offset="1" style="stop-color:#FFF53F"/>
	</linearGradient>
	<path fill="url(#SVGID_1_)" d="M225.8,216c-1.3,0-2.5,0-3.8,0c-1.2-0.7-2.3-1.4-3.6-2c-26.5-11.4-53-22.8-79.6-34
		c-4.5-1.9-6.4-4.5-6.4-9.5c0.2-34.8,0.2-69.5,0-104.3c0-5.3,1.9-8.1,6.7-10.1c27.9-11.8,55.8-23.9,83.7-35.9c1,0,2,0,3.1,0
		c28,12,55.9,24.1,84,36c4.5,1.9,6.3,4.6,6.3,9.5c-0.2,34.8-0.2,69.5,0,104.3c0,5.3-1.9,8-6.7,10.1C281.5,192,253.7,204,225.8,216z
		 M280,82.8c-15.8,6.7-31.6,13.3-47.3,20.1c-1.1,0.5-2.2,2.5-2.3,3.8c-0.2,8.1,0,16.2,0,24.4c0,6.6,0,13.2,0,19.9
		c0,5.9,0,11.7,0,17.6c0,6.4,0,12.7,0,19.1c0,3.9,0,7.9,0,12.9c6.2-2.8,11.5-5.1,16.7-7.5c17.8-7.6,35.6-15.1,53.5-22.6
		c2.2-0.9,3.1-2.1,3.1-4.6c-0.1-10.1-0.1-20.1-0.2-30.2c0-5.9,0-11.7,0-17.6c0-6.6,0-13.2,0-19.9c0-6.1,0-12.2,0-18.4
		c0-2.2,0-4.3,0-7.6C295,76.2,287.5,79.5,280,82.8z M217.7,200.2c0.2-1.9,0.4-3,0.4-4.1c0-29.5,0-59.1,0.1-88.6
		c0-2.7-0.9-4.1-3.4-5.2c-21.8-9.2-43.6-18.6-65.3-27.9c-1.3-0.6-2.7-0.9-4.4-1.4c-0.2,1.6-0.3,2.6-0.3,3.6c0,29.7,0,59.3-0.1,89
		c0,2.8,1.2,4,3.6,5c21.4,9.1,42.8,18.3,64.3,27.5C214,198.8,215.5,199.4,217.7,200.2z M154.9,62.9c0.9,0.6,1.3,1,1.7,1.2
		c21.9,9.4,43.7,18.8,65.7,28.1c1.3,0.6,3.3,0.4,4.7-0.2c21.3-9,42.6-18.2,63.9-27.3c0.8-0.4,1.6-0.9,2.7-1.6
		c-0.8-0.5-1.2-0.8-1.7-1c-21.8-9.3-43.5-18.7-65.3-27.9c-1.5-0.6-3.8-0.3-5.4,0.4c-20.8,8.8-41.5,17.7-62.2,26.5
		C157.7,61.5,156.5,62.1,154.9,62.9z"/>
	<path fill="none" stroke="#000000" stroke-width="5" stroke-miterlimit="10" d="M311.4,324.3H137.7c-2.8,0-5-2.3-5-5v-9.3
		c0-2.8,2.3-5,5-5h173.7c2.8,0,5,2.3,5,5v9.3C316.4,322.1,314.2,324.3,311.4,324.3z"/>
	<line fill="none" stroke="#000000" stroke-width="5" stroke-miterlimit="10" x1="160.6" y1="304.8" x2="173.6" y2="273.7"/>
	<line fill="none" stroke="#000000" stroke-width="5" stroke-miterlimit="10" x1="288.6" y1="304.8" x2="275.6" y2="273.7"/>
	<circle fill="none" stroke="#000000" stroke-width="5" stroke-miterlimit="10" cx="223.9" cy="256.2" r="7.2"/>
</g>
</svg>
