<?xml version="1.0" encoding="utf-8"?>
<!-- Generator: Adobe Illustrator 18.0.0, SVG Export Plug-In . SVG Version: 6.00 Build 0)  -->
<!DOCTYPE svg PUBLIC "-//W3C//DTD SVG 1.1//EN" "http://www.w3.org/Graphics/SVG/1.1/DTD/svg11.dtd">
<svg version="1.1" id="Layer_1" xmlns="http://www.w3.org/2000/svg" xmlns:xlink="http://www.w3.org/1999/xlink" x="0px" y="0px"
	 viewBox="0 0 240 240" enable-background="new 0 0 240 240" xml:space="preserve">
<ellipse fill="#F03434" cx="119.7" cy="120.3" rx="115.4" ry="115.3"/>
<g>
	<circle fill="#F4B350" cx="119.8" cy="120.3" r="114.3"/>
	<path fill="#CF000F" d="M120,4v232.5l-0.5-0.2c-64.1,0-116.3-52-116.3-116.1S55.4,3.9,119.6,3.9"/>
	<path fill="#F03434" d="M120,4v232.5l0.6-0.2c64.1,0,116.3-52,116.3-116.1S184.6,3.9,120.5,3.9"/>
	<path fill="none" stroke="#231F20" stroke-miterlimit="10" d="M102.1,102.8"/>
	<path fill="none" stroke="#231F20" stroke-miterlimit="10" d="M97.9,143.5"/>
	<path fill="#013243" d="M143.8,221.7h-48c-1.7,0-3-1.3-3-3v-83.6c0-1.7,1.3-3,3-3h48c1.7,0,3,1.3,3,3v83.6
		C146.8,220.3,145.5,221.7,143.8,221.7z"/>
	<rect x="95" y="140.9" fill="#1E8BC3" width="49.7" height="69.3"/>
	<circle fill="#0F4756" cx="120.3" cy="216.3" r="3.5"/>
	<path fill="#0F4756" d="M130,137.5h-19.5c-0.6,0-1-0.4-1-1l0,0c0-0.6,0.4-1,1-1H130c0.6,0,1,0.4,1,1l0,0
		C131,137.1,130.6,137.5,130,137.5z"/>
	<polygon fill="#1E8BC3" points="95,141 95,210 144.7,140.9 	"/>
	<polygon fill="#3498DB" points="145,209.9 145,140.9 95.3,210 	"/>
	<path fill="#ECECEC" d="M165.2,99.8H74.5c-11,0-20-9-20-20V47.9c0-11,9-20,20-20h90.7c11,0,20,9,20,20v31.8
		C185.2,90.8,176.2,99.8,165.2,99.8z"/>
	<polygon fill="#ECECEC" points="112.2,96 129,96 120.6,126.3 	"/>
	<circle fill="#BDC3C7" cx="119.5" cy="63.6" r="7.8"/>
	<circle fill="#BDC3C7" cx="92.5" cy="63.6" r="7.8"/>
	<circle fill="#BDC3C7" cx="145.5" cy="63.6" r="7.8"/>
</g>
</svg>
