<?xml version="1.0" encoding="utf-8"?>
<!-- Generator: Adobe Illustrator 18.0.0, SVG Export Plug-In . SVG Version: 6.00 Build 0)  -->
<!DOCTYPE svg PUBLIC "-//W3C//DTD SVG 1.1//EN" "http://www.w3.org/Graphics/SVG/1.1/DTD/svg11.dtd">
<svg version="1.1" id="Layer_1" xmlns="http://www.w3.org/2000/svg" xmlns:xlink="http://www.w3.org/1999/xlink" x="0px" y="0px"
	 viewBox="0 0 240 240" enable-background="new 0 0 240 240" xml:space="preserve">
<circle fill="#F4B350" cx="119.8" cy="120.3" r="114.3"/>
<g>
	<g>
		<path fill="#F39C12" d="M120,4v232.5l-0.5-0.2c-64.1,0-116.3-52-116.3-116.1S55.4,3.9,119.6,3.9"/>
		<path fill="#F4B350" d="M120,4v232.5l0.6-0.2c64.1,0,116.3-52,116.3-116.1S184.6,3.9,120.5,3.9"/>
		<g>
			<path fill="#ECECEC" d="M151.9,180h-64c-2.2,0-4,1.8-4,4v0.9c0,2.2,1.8,4,4,4h64c2.2,0,4-1.8,4-4V184
				C155.9,181.8,154.1,180,151.9,180z"/>
			<rect x="106" y="169.8" fill="#ECECEC" width="27.8" height="11.2"/>
		</g>
		<path fill="#D6D6D6" d="M188.1,170.3h-136c-2.8,0-5-2.2-5-5v-3c0-2.8,2.2-5,5-5h136c2.8,0,5,2.2,5,5v3
			C193.1,168.1,190.8,170.3,188.1,170.3z"/>
		<path fill="#ECECEC" d="M191.1,164.7h-142c-1.1,0-2-0.9-2-2V77.3c0-1.1,0.9-2,2-2h142c1.1,0,2,0.9,2,2v85.3
			C193.1,163.8,192.2,164.7,191.1,164.7z"/>
		<path fill="#2C3E50" d="M183.7,159.3H56.3c-2.2,0-4-1.8-4-4V85.2c0-2.2,1.8-4,4-4h127.3c2.2,0,4,1.8,4,4v70.1
			C187.7,157.5,185.9,159.3,183.7,159.3z"/>
		<g>
			<polygon fill="#ECECEC" points="83.9,185 120,171 119.9,185 			"/>
			<polygon fill="#ECECEC" points="156,185 119.9,171 120,185 			"/>
		</g>
		<path fill="#34495E" d="M69.1,121.4L69.1,121.4c0.8,0.8,2.1,0.7,2.8,0l24.5-25.4c0.8-0.8,0.7-2.1,0-2.8l0,0
			c-0.8-0.8-2.1-0.7-2.8,0l-24.5,25.4C68.3,119.3,68.3,120.6,69.1,121.4z"/>
		<path fill="#34495E" d="M62.9,113.9L62.9,113.9c0.8,0.8,2.1,0.7,2.8,0l18.5-19.2c0.8-0.8,0.7-2.1,0-2.8v0c-0.8-0.8-2.1-0.7-2.8,0
			L62.8,111C62.1,111.8,62.1,113.1,62.9,113.9z"/>
		<path fill="#34495E" d="M57.7,104.9L57.7,104.9c0.8,0.8,2.1,0.7,2.8,0l11.6-12c0.8-0.8,0.7-2.1,0-2.8l0,0c-0.8-0.8-2.1-0.7-2.8,0
			l-11.6,12C56.9,102.9,56.9,104.1,57.7,104.9z"/>
	</g>
	<path fill="#D6D6D6" d="M152,188.9h-64c-2.2,0-4-1.8-4-4V184c0-2.2,1.8-4,4-4h64c2.2,0,4,1.8,4,4v0.9
		C156,187.1,154.2,188.9,152,188.9z"/>
	<circle fill="#BDC3C7" cx="120.3" cy="164.3" r="3.3"/>
</g>
<path fill="none" stroke="#231F20" stroke-miterlimit="10" d="M102.1,102.8"/>
<path fill="none" stroke="#231F20" stroke-miterlimit="10" d="M97.9,143.5"/>
</svg>
