<?xml version="1.0" encoding="utf-8"?>
<!-- Generator: Adobe Illustrator 18.0.0, SVG Export Plug-In . SVG Version: 6.00 Build 0)  -->
<!DOCTYPE svg PUBLIC "-//W3C//DTD SVG 1.1//EN" "http://www.w3.org/Graphics/SVG/1.1/DTD/svg11.dtd">
<svg version="1.1" id="Layer_1" xmlns="http://www.w3.org/2000/svg" xmlns:xlink="http://www.w3.org/1999/xlink" x="0px" y="0px"
	 viewBox="0 0 520 520" enable-background="new 0 0 520 520" xml:space="preserve">
<linearGradient id="SVGID_1_" gradientUnits="userSpaceOnUse" x1="56.3046" y1="268.1558" x2="463.6954" y2="268.1558">
	<stop  offset="0" style="stop-color:#55FFF3"/>
	<stop  offset="0.2042" style="stop-color:#82FCC4"/>
	<stop  offset="0.4747" style="stop-color:#B7F98B"/>
	<stop  offset="0.7073" style="stop-color:#DEF762"/>
	<stop  offset="0.8899" style="stop-color:#F6F648"/>
	<stop  offset="1" style="stop-color:#FFF53F"/>
</linearGradient>
<path fill="url(#SVGID_1_)" stroke="#FFFFFF" stroke-width="8" stroke-miterlimit="10" d="M263.4,485.2c-2.8,0-5.7,0-8.5,0
	c-2.6-1.5-5.2-3.2-8-4.4c-58.8-25.2-117.6-50.6-176.5-75.5c-10-4.2-14.2-10.1-14.1-21.1c0.3-77.1,0.4-154.2,0-231.3
	c-0.1-11.6,4.1-17.9,14.8-22.4c62-26.2,123.7-53,185.5-79.6c2.3,0,4.5,0,6.8,0c62.1,26.7,124.1,53.5,186.3,79.9
	c10,4.2,14.1,10.2,14,21.2c-0.3,77.1-0.4,154.1,0,231.2c0.1,11.7-4.2,17.8-14.8,22.3C386.9,431.9,325.2,458.6,263.4,485.2z
	 M383.7,189.8c-35,14.8-70,29.5-104.9,44.7c-2.5,1.1-4.9,5.5-5,8.4c-0.4,18-0.1,36,0,54c0,14.7,0,29.4,0,44.1c0,13,0,26,0,39
	c0,14.1,0,28.3,0,42.4c0,8.7,0,17.5,0,28.5c13.8-6.2,25.5-11.3,37.1-16.5c39.5-16.7,79-33.6,118.6-50.2c4.8-2,7-4.7,6.9-10.1
	c-0.3-22.3-0.3-44.6-0.4-67c0-13,0-26,0-39c0-14.7,0-29.4,0-44.1c0-13.6,0-27.1,0-40.7c0-4.8,0-9.6,0-16.8
	C417,175.1,400.3,182.5,383.7,189.8z M245.6,450.2c0.4-4.2,0.8-6.6,0.8-9.1c0-65.5,0-131,0.1-196.5c0-6-2-9.1-7.5-11.4
	c-48.3-20.5-96.6-41.3-144.9-61.9c-2.9-1.2-6-1.9-9.7-3.1c-0.3,3.5-0.8,5.7-0.8,7.9c0,65.8,0.1,131.6-0.2,197.4
	c0,6.2,2.7,8.9,7.9,11.2c47.5,20.2,95,40.6,142.5,61C237.3,447.1,240.6,448.3,245.6,450.2z M106.1,145.7c2,1.4,2.8,2.2,3.8,2.6
	c48.5,20.8,97,41.7,145.6,62.2c2.9,1.2,7.3,0.8,10.3-0.5c47.3-20,94.5-40.3,141.7-60.6c1.9-0.8,3.6-2.1,6-3.5
	c-1.9-1.1-2.8-1.8-3.8-2.2c-48.3-20.7-96.5-41.5-144.9-61.8c-3.3-1.4-8.4-0.7-11.9,0.8c-46,19.4-91.9,39.2-137.9,58.8
	C112.4,142.7,109.8,144,106.1,145.7z"/>
</svg>
