<?xml version="1.0" encoding="utf-8"?>
<!-- Generator: Adobe Illustrator 18.0.0, SVG Export Plug-In . SVG Version: 6.00 Build 0)  -->
<!DOCTYPE svg PUBLIC "-//W3C//DTD SVG 1.1//EN" "http://www.w3.org/Graphics/SVG/1.1/DTD/svg11.dtd">
<svg version="1.1" id="Layer_1" xmlns="http://www.w3.org/2000/svg" xmlns:xlink="http://www.w3.org/1999/xlink" x="0px" y="0px"
	 viewBox="0 0 520 520" enable-background="new 0 0 520 520" xml:space="preserve">
<g>
	<linearGradient id="SVGID_1_" gradientUnits="userSpaceOnUse" x1="3.3308" y1="259.5637" x2="517.3651" y2="259.5637">
		<stop  offset="0" style="stop-color:#82CFD5"/>
		<stop  offset="4.020202e-002" style="stop-color:#88D1CE"/>
		<stop  offset="0.3668" style="stop-color:#B9DD95"/>
		<stop  offset="0.6472" style="stop-color:#DCE66C"/>
		<stop  offset="0.8673" style="stop-color:#F2EC52"/>
		<stop  offset="1" style="stop-color:#FAEE49"/>
	</linearGradient>
	<path fill="#FFFFFF" stroke="url(#SVGID_1_)" stroke-width="15" stroke-miterlimit="10" d="M494.9,456h-469c-8.3,0-15-6.7-15-15
		V78.2c0-8.3,6.7-15,15-15h469c8.3,0,15,6.7,15,15V441C509.9,449.3,503.1,456,494.9,456z"/>
	<linearGradient id="SVGID_2_" gradientUnits="userSpaceOnUse" x1="36.7916" y1="133.0412" x2="127.034" y2="133.0412">
		<stop  offset="0" style="stop-color:#FFF33B"/>
		<stop  offset="4.010540e-002" style="stop-color:#FEE72E"/>
		<stop  offset="0.1171" style="stop-color:#FED51B"/>
		<stop  offset="0.1964" style="stop-color:#FDCA10"/>
		<stop  offset="0.2809" style="stop-color:#FDC70C"/>
		<stop  offset="0.6685" style="stop-color:#F3903F"/>
		<stop  offset="0.8876" style="stop-color:#ED683C"/>
		<stop  offset="1" style="stop-color:#E93E3A"/>
	</linearGradient>
	
		<circle opacity="0.64" fill="none" stroke="url(#SVGID_2_)" stroke-width="15" stroke-miterlimit="10" cx="81.9" cy="133" r="37.6"/>
	<g>
		<polyline fill="#FFFFFF" points="487.6,394.2 340.2,246.6 218,370.2 218,371.5 154.8,308.4 32.3,432 		"/>
		<g>
			<linearGradient id="SVGID_3_" gradientUnits="userSpaceOnUse" x1="259.9702" y1="432.393" x2="259.9702" y2="245.9041">
				<stop  offset="0" style="stop-color:#00AA48"/>
				<stop  offset="0.1505" style="stop-color:#00BB5A"/>
				<stop  offset="0.5254" style="stop-color:#00E083"/>
				<stop  offset="0.8214" style="stop-color:#00F79D"/>
				<stop  offset="1" style="stop-color:#00FFA6"/>
			</linearGradient>
			<path fill="url(#SVGID_3_)" d="M492.9,388.9C458.5,354.4,424,320,389.6,285.5c-14.7-14.7-29.5-29.5-44.2-44.2
				c-2.9-2.9-7.7-2.9-10.6,0c-35.1,35.5-70.3,71-105.4,106.5c-4.3,4.4-8.7,8.8-13,13.1c-3.2,3.2-6.1,5.5-6.1,10.5
				c4.3-1.8,8.5-3.5,12.8-5.3c-21-21-42-42-63.1-63.1c-2.9-2.9-7.7-2.9-10.6,0c-35.1,35.5-70.3,71-105.4,106.5
				c-5.6,5.7-11.3,11.4-16.9,17.1c-6.8,6.9,3.8,17.5,10.6,10.6c35.1-35.5,70.3-71,105.4-106.5c5.6-5.7,11.3-11.4,16.9-17.1
				c-3.5,0-7.1,0-10.6,0c21,21,42,42,63.1,63.1c4.6,4.6,12.8,1.2,12.8-5.3c0-0.4,0-0.8,0-1.3c-0.7,1.8-1.5,3.5-2.2,5.3
				c35.1-35.5,70.3-71,105.4-106.5c5.6-5.7,11.3-11.4,16.9-17.1c-3.5,0-7.1,0-10.6,0c34.5,34.5,68.9,68.9,103.4,103.4
				c14.7,14.7,29.5,29.5,44.2,44.2C489.2,406.3,499.8,395.7,492.9,388.9L492.9,388.9z"/>
		</g>
	</g>
</g>
</svg>
